# xmcd CD database file
#
# Track frame offsets:
#	150
#	21156
#	50035
#
# Disc length: 1964 seconds
#
# Revision: 0
# Processed by: cddbd v1.5.1PL2 Copyright (c) Steve Scherf et al.
# Submitted via: CDex 1.60beta1
#
DISCID=2107aa03
DTITLE=Tina - Aufgetaucht
DYEAR=2003
DGENRE=Jazz
TTITLE0=Believe in Life
TTITLE1=Sunny
TTITLE2=Data Track
EXTD=YEAR: 2003
EXTT0=
EXTT1=
EXTT2=
PLAYORDER=
